<svg xmlns="http://www.w3.org/2000/svg" xmlns:xlink="http://www.w3.org/1999/xlink" width="386" height="282" viewBox="0 0 386 282">
  <defs>
    <filter id="Rectangle_25" x="0" y="0" width="385.623" height="241.584" filterUnits="userSpaceOnUse">
      <feOffset dy="3" input="SourceAlpha"/>
      <feGaussianBlur stdDeviation="3" result="blur"/>
      <feFlood flood-opacity="0.161"/>
      <feComposite operator="in" in2="blur"/>
      <feComposite in="SourceGraphic"/>
    </filter>
    <filter id="Rectangle_28" x="0" y="214" width="386" height="68" filterUnits="userSpaceOnUse">
      <feOffset dy="3" input="SourceAlpha"/>
      <feGaussianBlur stdDeviation="3" result="blur-2"/>
      <feFlood flood-opacity="0.161"/>
      <feComposite operator="in" in2="blur-2"/>
      <feComposite in="SourceGraphic"/>
    </filter>
  </defs>
  <g id="Group_83" data-name="Group 83" transform="translate(-60 -261)">
    <g id="Group_78" data-name="Group 78" transform="translate(69 267)">
      <g transform="matrix(1, 0, 0, 1, -9, -6)" filter="url(#Rectangle_25)">
        <rect id="Rectangle_25-2" data-name="Rectangle 25" width="367.623" height="223.584" rx="5" transform="translate(9 6)" fill="#02a060" opacity="0.84"/>
      </g>
      <g id="movieLogo" transform="translate(93.16 21.498)">
        <path id="Path_70" data-name="Path 70" d="M450.233,86.994V17.058A7.058,7.058,0,0,0,443.174,10H422V24.116h14.116V86.994Zm0,0" transform="translate(-273.073 -6.471)" fill="#ade5ff"/>
        <path id="Path_71" data-name="Path 71" d="M96.815,228.172H10v54.265l14.116,14.116H84.3l12.517-12.517Zm0,0" transform="translate(-6.471 -147.648)" fill="#72d8ff"/>
        <path id="Path_72" data-name="Path 72" d="M268.517,296.553H328.7l14.116-14.116V228.172H256v55.864Zm0,0" transform="translate(-165.656 -147.648)" fill="#ff5d5d"/>
        <path id="Path_73" data-name="Path 73" d="M10,86.994V17.058A7.058,7.058,0,0,1,17.058,10H38.233V24.116H24.116V86.994Zm0,0" transform="translate(-6.471 -6.471)" fill="#ade5ff"/>
        <path id="Path_74" data-name="Path 74" d="M62.02,308.329V283.72c1.377-1.378,2.151-2.152,3.529-3.529H108.59c1.379,1.377,2.152,2.151,3.529,3.529v24.608l-3.529,3.529H65.549Zm0,0" transform="translate(-40.132 -181.31)" fill="#fff"/>
        <path id="Path_75" data-name="Path 75" d="M308.02,308.329V283.72c1.377-1.378,2.151-2.152,3.529-3.529H354.59c1.379,1.377,2.152,2.151,3.529,3.529v24.608l-3.529,3.529H311.549Zm0,0" transform="translate(-199.317 -181.31)" fill="#fff"/>
        <path id="Path_76" data-name="Path 76" d="M170.1,0H148.927A3.529,3.529,0,0,0,145.4,3.529V17.645a3.529,3.529,0,0,0,3.529,3.529h10.587v55.82H139.021a3.529,3.529,0,0,0,0,7.058h34.61v49.275l-12.05,12.048H104.323L93.873,134.925V84.053h15.55a3.529,3.529,0,0,0,0-7.058H21.174V21.174H31.762a3.529,3.529,0,0,0,3.529-3.529V3.529A3.529,3.529,0,0,0,31.762,0H10.587A10.6,10.6,0,0,0,0,10.587v124.2a3.529,3.529,0,0,0,1.034,2.5L15.15,151.4a3.529,3.529,0,0,0,2.5,1.034H77.827a3.529,3.529,0,0,0,2.5-1.034l10.022-10.022L100.366,151.4a3.529,3.529,0,0,0,2.5,1.034h60.182a3.529,3.529,0,0,0,2.5-1.034l14.116-14.116a3.529,3.529,0,0,0,1.034-2.5V10.587A10.6,10.6,0,0,0,170.1,0ZM10.587,7.058H28.233v7.058H17.645a3.529,3.529,0,0,0-3.529,3.529V76.994H7.058V10.587A3.533,3.533,0,0,1,10.587,7.058ZM76.366,145.376H19.108L7.058,133.327V84.053H86.815v50.872Zm90.206-68.381V17.645a3.529,3.529,0,0,0-3.529-3.529H152.456V7.058H170.1a3.532,3.532,0,0,1,3.529,3.529V76.994Zm0,0"/>
        <path id="Path_77" data-name="Path 77" d="M126.529,359.922a3.53,3.53,0,1,0,2.5,1.034A3.549,3.549,0,0,0,126.529,359.922Zm0,0" transform="translate(-79.592 -232.903)"/>
        <path id="Path_78" data-name="Path 78" d="M104.615,271.221a3.535,3.535,0,0,0-2.5-1.034H59.078a3.535,3.535,0,0,0-2.5,1.034l-3.529,3.529a3.528,3.528,0,0,0-1.033,2.5v24.608a3.528,3.528,0,0,0,1.033,2.5l3.529,3.529a3.534,3.534,0,0,0,2.5,1.034H63.4a3.529,3.529,0,0,0,0-7.058H60.539l-1.463-1.461V278.708l1.463-1.463h40.118l1.461,1.463v21.685l-1.461,1.461h-4.32a3.529,3.529,0,0,0,0,7.058h5.782a3.534,3.534,0,0,0,2.5-1.034l3.529-3.529a3.528,3.528,0,0,0,1.033-2.5V277.246a3.528,3.528,0,0,0-1.033-2.5Zm0,0" transform="translate(-33.661 -174.836)"/>
        <path id="Path_79" data-name="Path 79" d="M342.93,221.7a3.53,3.53,0,1,0,1.034-2.5A3.554,3.554,0,0,0,342.93,221.7Zm0,0" transform="translate(-221.907 -141.177)"/>
        <path id="Path_80" data-name="Path 80" d="M302.579,271.221l-3.529,3.529a3.529,3.529,0,0,0-1.034,2.5v24.608a3.529,3.529,0,0,0,1.034,2.5l3.529,3.529a3.529,3.529,0,0,0,2.5,1.034h43.042a3.529,3.529,0,0,0,2.5-1.034l3.529-3.529a3.529,3.529,0,0,0,1.034-2.5V277.246a3.529,3.529,0,0,0-1.034-2.5l-3.529-3.529a3.529,3.529,0,0,0-2.5-1.034H305.075A3.536,3.536,0,0,0,302.579,271.221Zm44.076,6.026,1.461,1.461v21.685l-1.461,1.463H306.536l-1.463-1.463V278.708l1.463-1.461Zm0,0" transform="translate(-192.844 -174.836)"/>
        <path id="Path_81" data-name="Path 81" d="M177.583,97.379H163.467a3.529,3.529,0,1,0,0,7.058h14.116a11.993,11.993,0,0,0,8.49-20.469,11.993,11.993,0,0,0-8.49-20.469H163.467a3.529,3.529,0,1,0,0,7.058h14.116a4.941,4.941,0,0,1,0,9.881H163.467a3.529,3.529,0,1,0,0,7.058h14.116a4.941,4.941,0,0,1,0,9.881Zm0,0" transform="translate(-103.494 -41.09)"/>
        <path id="Path_82" data-name="Path 82" d="M271.592,104.437h5.647a20.469,20.469,0,0,0,0-40.937h-5.647a3.529,3.529,0,0,0-3.529,3.529v33.879A3.529,3.529,0,0,0,271.592,104.437Zm3.529-33.879h2.117a13.41,13.41,0,0,1,0,26.821h-2.117Zm0,0" transform="translate(-173.461 -41.09)"/>
      </g>
    </g>
    <g transform="matrix(1, 0, 0, 1, 60, 261)" filter="url(#Rectangle_28)">
      <path id="Rectangle_28-2" data-name="Rectangle 28" d="M0,0H368a0,0,0,0,1,0,0V45a5,5,0,0,1-5,5H5a5,5,0,0,1-5-5V0A0,0,0,0,1,0,0Z" transform="translate(9 220)" fill="#fff"/>
    </g>
    <path id="Path_84" data-name="Path 84" d="M4.257-5.9V0H2.134V-15.763H6.787a8.731,8.731,0,0,1,2.6.346,5,5,0,0,1,1.831.984,3.968,3.968,0,0,1,1.084,1.54,5.421,5.421,0,0,1,.358,2.013,5.13,5.13,0,0,1-.385,2.013,4.331,4.331,0,0,1-1.128,1.573A5.238,5.238,0,0,1,9.306-6.265,7.919,7.919,0,0,1,6.787-5.9Zm0-1.694h2.53A4.916,4.916,0,0,0,8.4-7.832,3.3,3.3,0,0,0,9.57-8.509a2.809,2.809,0,0,0,.715-1.039,3.553,3.553,0,0,0,.242-1.331,3.024,3.024,0,0,0-.93-2.354,4.057,4.057,0,0,0-2.811-.847H4.257Zm12.969-3.553V0H15.268V-11.143Zm.44-3.5a1.246,1.246,0,0,1-.115.533,1.536,1.536,0,0,1-.308.44,1.431,1.431,0,0,1-.445.3,1.337,1.337,0,0,1-.539.11,1.3,1.3,0,0,1-.534-.11,1.45,1.45,0,0,1-.44-.3,1.45,1.45,0,0,1-.3-.44,1.3,1.3,0,0,1-.11-.533,1.376,1.376,0,0,1,.11-.544,1.414,1.414,0,0,1,.3-.451,1.45,1.45,0,0,1,.44-.3,1.3,1.3,0,0,1,.534-.11,1.337,1.337,0,0,1,.539.11,1.431,1.431,0,0,1,.445.3,1.492,1.492,0,0,1,.308.451A1.32,1.32,0,0,1,17.666-14.641Zm5.621,8.932-3.751-5.434h1.881a.626.626,0,0,1,.352.077.729.729,0,0,1,.2.22l2.728,4.18a2.9,2.9,0,0,1,.286-.616l2.4-3.52a1.363,1.363,0,0,1,.22-.248.41.41,0,0,1,.275-.093h1.8L25.927-5.819,29.832,0H27.951a.539.539,0,0,1-.38-.126,1.167,1.167,0,0,1-.226-.281l-2.8-4.367a1.99,1.99,0,0,1-.231.572l-2.6,3.8a2.222,2.222,0,0,1-.236.281A.468.468,0,0,1,21.131,0H19.382Zm12.232-5.61a4.974,4.974,0,0,1,1.848.336,4.148,4.148,0,0,1,1.463.968,4.413,4.413,0,0,1,.963,1.562,6.035,6.035,0,0,1,.346,2.118,1.277,1.277,0,0,1-.1.616.411.411,0,0,1-.374.154H32.252a6.152,6.152,0,0,0,.286,1.837,3.756,3.756,0,0,0,.726,1.3,2.909,2.909,0,0,0,1.1.781,3.778,3.778,0,0,0,1.43.258,4.2,4.2,0,0,0,1.27-.17,6.045,6.045,0,0,0,.919-.368,7.007,7.007,0,0,0,.644-.368.853.853,0,0,1,.445-.171.431.431,0,0,1,.374.187l.55.715a3.719,3.719,0,0,1-.869.765,5.411,5.411,0,0,1-1.083.533A6.882,6.882,0,0,1,36.85.049a7.29,7.29,0,0,1-1.221.1A5.666,5.666,0,0,1,33.5-.237,4.672,4.672,0,0,1,31.818-1.38a5.248,5.248,0,0,1-1.105-1.864,7.582,7.582,0,0,1-.4-2.552,6.493,6.493,0,0,1,.358-2.178A5.134,5.134,0,0,1,31.7-9.729,4.735,4.735,0,0,1,33.341-10.9,5.38,5.38,0,0,1,35.519-11.319Zm.044,1.441a3.006,3.006,0,0,0-2.233.82,3.857,3.857,0,0,0-1.012,2.271h6.061a3.965,3.965,0,0,0-.187-1.248,2.782,2.782,0,0,0-.55-.979,2.462,2.462,0,0,0-.886-.638A2.986,2.986,0,0,0,35.563-9.878ZM44.814-16.2V0H42.856V-16.2Zm17.721.44v1.738H54.967v5.511h6.468v1.738H54.967V0H52.822V-15.763Zm4.609,4.62V0H65.186V-11.143Zm.44-3.5a1.246,1.246,0,0,1-.116.533,1.536,1.536,0,0,1-.308.44,1.431,1.431,0,0,1-.445.3,1.337,1.337,0,0,1-.539.11,1.3,1.3,0,0,1-.534-.11,1.45,1.45,0,0,1-.44-.3,1.45,1.45,0,0,1-.3-.44,1.3,1.3,0,0,1-.11-.533,1.376,1.376,0,0,1,.11-.544,1.414,1.414,0,0,1,.3-.451,1.45,1.45,0,0,1,.44-.3,1.3,1.3,0,0,1,.534-.11,1.337,1.337,0,0,1,.539.11,1.431,1.431,0,0,1,.445.3,1.492,1.492,0,0,1,.308.451A1.32,1.32,0,0,1,67.584-14.641ZM72.776-16.2V0H70.818V-16.2ZM76.23,0V-11.143H77.4a.5.5,0,0,1,.528.407l.143,1.144a5.717,5.717,0,0,1,1.381-1.243,3.25,3.25,0,0,1,1.776-.484,2.638,2.638,0,0,1,1.831.627A3.527,3.527,0,0,1,84.062-9a3.487,3.487,0,0,1,.611-1.045,3.546,3.546,0,0,1,.853-.726,3.611,3.611,0,0,1,1.007-.418,4.5,4.5,0,0,1,1.083-.132,4.121,4.121,0,0,1,1.568.281,3.1,3.1,0,0,1,1.166.819,3.65,3.65,0,0,1,.731,1.325,5.87,5.87,0,0,1,.253,1.8V0H89.375V-7.095A3,3,0,0,0,88.8-9.08a2.053,2.053,0,0,0-1.661-.677,2.492,2.492,0,0,0-.918.17,2.213,2.213,0,0,0-.765.5,2.346,2.346,0,0,0-.522.83,3.221,3.221,0,0,0-.192,1.161V0H82.786V-7.095a3.122,3.122,0,0,0-.539-2,1.913,1.913,0,0,0-1.573-.66,2.486,2.486,0,0,0-1.348.391,4.411,4.411,0,0,0-1.138,1.061V0Zm24.442-9.306a.434.434,0,0,1-.407.242.766.766,0,0,1-.374-.121q-.209-.121-.512-.27a4.8,4.8,0,0,0-.72-.275,3.437,3.437,0,0,0-.99-.127,2.922,2.922,0,0,0-.891.127,2.14,2.14,0,0,0-.677.347,1.533,1.533,0,0,0-.429.511,1.373,1.373,0,0,0-.149.632,1.054,1.054,0,0,0,.248.715,2.151,2.151,0,0,0,.654.5,5.706,5.706,0,0,0,.924.369q.517.159,1.062.341t1.062.4a3.852,3.852,0,0,1,.924.55,2.516,2.516,0,0,1,.655.809A2.475,2.475,0,0,1,101.3-3.41a3.64,3.64,0,0,1-.275,1.425,3.109,3.109,0,0,1-.814,1.133A3.925,3.925,0,0,1,98.89-.1a5.423,5.423,0,0,1-1.8.275A5.627,5.627,0,0,1,94.974-.2a5.352,5.352,0,0,1-1.606-.974l.462-.748a.671.671,0,0,1,.209-.22.587.587,0,0,1,.319-.077.737.737,0,0,1,.418.154q.22.154.534.341a4.105,4.105,0,0,0,.759.341,3.459,3.459,0,0,0,1.117.154,3.06,3.06,0,0,0,1-.148,2.1,2.1,0,0,0,.715-.4,1.59,1.59,0,0,0,.423-.583,1.812,1.812,0,0,0,.138-.7,1.168,1.168,0,0,0-.247-.764,2.089,2.089,0,0,0-.655-.517,5.334,5.334,0,0,0-.93-.374q-.523-.159-1.067-.335t-1.067-.4a3.751,3.751,0,0,1-.93-.567,2.566,2.566,0,0,1-.654-.841,2.721,2.721,0,0,1-.248-1.216,2.965,2.965,0,0,1,.264-1.226,3.008,3.008,0,0,1,.77-1.034,3.792,3.792,0,0,1,1.243-.71,4.974,4.974,0,0,1,1.683-.264,5.323,5.323,0,0,1,1.974.347,4.673,4.673,0,0,1,1.513.951Z" transform="translate(199 513)" fill="#707070"/>
  </g>
</svg>
