<svg xmlns="http://www.w3.org/2000/svg" xmlns:xlink="http://www.w3.org/1999/xlink" width="275" height="202" viewBox="0 0 275 202">
  <defs>
    <filter id="Rectangle_25" x="0" y="0" width="274.5" height="174" filterUnits="userSpaceOnUse">
      <feOffset dy="3" input="SourceAlpha"/>
      <feGaussianBlur stdDeviation="3" result="blur"/>
      <feFlood flood-opacity="0.161"/>
      <feComposite operator="in" in2="blur"/>
      <feComposite in="SourceGraphic"/>
    </filter>
    <filter id="Rectangle_28" x="0" y="149" width="275" height="53" filterUnits="userSpaceOnUse">
      <feOffset dy="3" input="SourceAlpha"/>
      <feGaussianBlur stdDeviation="3" result="blur-2"/>
      <feFlood flood-opacity="0.161"/>
      <feComposite operator="in" in2="blur-2"/>
      <feComposite in="SourceGraphic"/>
    </filter>
  </defs>
  <g id="Group_83" data-name="Group 83" transform="translate(-60 -261)">
    <g id="Group_78" data-name="Group 78">
      <g transform="matrix(1, 0, 0, 1, 60, 261)" filter="url(#Rectangle_25)">
        <rect id="Rectangle_25-2" data-name="Rectangle 25" width="256.5" height="156" rx="5" transform="translate(9 6)" fill="#02a060" opacity="0.84"/>
      </g>
      <g id="movieLogo" transform="translate(134 282)">
        <path id="Path_70" data-name="Path 70" d="M441.7,63.721v-48.8A4.924,4.924,0,0,0,436.774,10H422v9.849h9.849V63.721Zm0,0" transform="translate(-318.09 -7.538)" fill="#ade5ff"/>
        <path id="Path_71" data-name="Path 71" d="M70.573,228.172H10v37.862l9.849,9.849H61.84l8.734-8.734Zm0,0" transform="translate(-7.538 -171.989)" fill="#72d8ff"/>
        <path id="Path_72" data-name="Path 72" d="M264.734,275.883h41.99l9.849-9.849V228.172H256V267.15Zm0,0" transform="translate(-192.964 -171.989)" fill="#ff5d5d"/>
        <path id="Path_73" data-name="Path 73" d="M10,63.721v-48.8A4.924,4.924,0,0,1,14.925,10H29.7v9.849H19.849V63.721Zm0,0" transform="translate(-7.538 -7.538)" fill="#ade5ff"/>
        <path id="Path_74" data-name="Path 74" d="M62.02,299.824v-17.17l2.462-2.462H94.513l2.462,2.462v17.17l-2.462,2.462H64.482Zm0,0" transform="translate(-46.748 -211.199)" fill="#fff"/>
        <path id="Path_75" data-name="Path 75" d="M308.02,299.824v-17.17l2.462-2.462h30.031l2.462,2.462v17.17l-2.462,2.462H310.482Zm0,0" transform="translate(-232.175 -211.199)" fill="#fff"/>
        <path id="Path_76" data-name="Path 76" d="M118.684,0H103.91a2.462,2.462,0,0,0-2.462,2.462v9.849a2.462,2.462,0,0,0,2.462,2.462H111.3V53.721H97a2.462,2.462,0,0,0,0,4.925h24.148v34.38l-8.408,8.407H72.789L65.5,94.141v-35.5h10.85a2.462,2.462,0,0,0,0-4.925H14.774V14.774h7.387a2.462,2.462,0,0,0,2.462-2.462V2.462A2.462,2.462,0,0,0,22.161,0H7.387A7.4,7.4,0,0,0,0,7.387V94.045a2.462,2.462,0,0,0,.721,1.741l9.849,9.849a2.462,2.462,0,0,0,1.741.721H54.3a2.462,2.462,0,0,0,1.741-.721l6.993-6.993,6.993,6.993a2.462,2.462,0,0,0,1.741.721h41.99a2.462,2.462,0,0,0,1.741-.721l9.849-9.849a2.462,2.462,0,0,0,.721-1.741V7.387A7.4,7.4,0,0,0,118.684,0ZM7.387,4.925H19.7V9.849H12.312a2.462,2.462,0,0,0-2.462,2.462V53.721H4.925V7.387A2.465,2.465,0,0,1,7.387,4.925Zm45.9,96.508H13.332L4.925,93.026V58.646H60.573v35.5Zm62.939-47.711V12.312a2.462,2.462,0,0,0-2.462-2.462h-7.387V4.925h12.312a2.465,2.465,0,0,1,2.462,2.462V53.721Zm0,0"/>
        <path id="Path_77" data-name="Path 77" d="M125.462,359.922a2.463,2.463,0,1,0,1.741.721A2.476,2.476,0,0,0,125.462,359.922Zm0,0" transform="translate(-92.713 -271.297)"/>
        <path id="Path_78" data-name="Path 78" d="M88.717,270.909a2.466,2.466,0,0,0-1.742-.721H56.944a2.466,2.466,0,0,0-1.742.721l-2.462,2.462a2.461,2.461,0,0,0-.72,1.741v17.17a2.461,2.461,0,0,0,.72,1.741l2.462,2.462a2.466,2.466,0,0,0,1.742.721h3.014a2.462,2.462,0,1,0,0-4.925H57.964l-1.021-1.02v-15.13l1.021-1.021H85.955l1.02,1.021v15.13l-1.02,1.02H82.941a2.462,2.462,0,1,0,0,4.925h4.034a2.466,2.466,0,0,0,1.742-.721l2.462-2.462a2.461,2.461,0,0,0,.72-1.741v-17.17a2.461,2.461,0,0,0-.72-1.741Zm0,0" transform="translate(-39.211 -203.659)"/>
        <path id="Path_79" data-name="Path 79" d="M342.93,220.634a2.463,2.463,0,1,0,.721-1.741A2.48,2.48,0,0,0,342.93,220.634Zm0,0" transform="translate(-258.489 -164.451)"/>
        <path id="Path_80" data-name="Path 80" d="M301.2,270.909l-2.462,2.462a2.462,2.462,0,0,0-.721,1.741v17.17a2.462,2.462,0,0,0,.721,1.741l2.462,2.462a2.462,2.462,0,0,0,1.741.721h30.032a2.462,2.462,0,0,0,1.741-.721l2.462-2.462a2.462,2.462,0,0,0,.721-1.741v-17.17a2.462,2.462,0,0,0-.721-1.741l-2.462-2.462a2.462,2.462,0,0,0-1.741-.721H302.941A2.467,2.467,0,0,0,301.2,270.909Zm30.753,4.2,1.02,1.02v15.13l-1.02,1.021H303.961l-1.021-1.021v-15.13l1.021-1.02Zm0,0" transform="translate(-224.634 -203.659)"/>
        <path id="Path_81" data-name="Path 81" d="M172.249,87.138H162.4a2.462,2.462,0,0,0,0,4.925h9.849a8.368,8.368,0,0,0,5.924-14.281A8.368,8.368,0,0,0,172.249,63.5H162.4a2.462,2.462,0,0,0,0,4.925h9.849a3.447,3.447,0,0,1,0,6.895H162.4a2.462,2.462,0,0,0,0,4.925h9.849a3.447,3.447,0,0,1,0,6.895Zm0,0" transform="translate(-120.556 -47.864)"/>
        <path id="Path_82" data-name="Path 82" d="M270.525,92.063h3.94a14.281,14.281,0,1,0,0-28.563h-3.94a2.462,2.462,0,0,0-2.462,2.462V89.6A2.462,2.462,0,0,0,270.525,92.063Zm2.462-23.638h1.477a9.357,9.357,0,1,1,0,18.714h-1.477Zm0,0" transform="translate(-202.057 -47.864)"/>
      </g>
    </g>
    <g transform="matrix(1, 0, 0, 1, 60, 261)" filter="url(#Rectangle_28)">
      <path id="Rectangle_28-2" data-name="Rectangle 28" d="M0,0H257a0,0,0,0,1,0,0V30a5,5,0,0,1-5,5H5a5,5,0,0,1-5-5V0A0,0,0,0,1,0,0Z" transform="translate(9 155)" fill="#fff"/>
    </g>
    <text id="Pixel_Films" data-name="Pixel Films" transform="translate(160 439)" fill="#707070" font-size="16" font-family="Lato-Regular, Lato"><tspan x="0" y="0">Pixel Films</tspan></text>
  </g>
</svg>
