<svg xmlns="http://www.w3.org/2000/svg" width="948.844" height="306" viewBox="0 0 948.844 306">
  <g id="Group_114" data-name="Group 114" transform="translate(-222 -276)">
    <g id="Group_87" data-name="Group 87" transform="translate(222 276)">
      <rect id="Rectangle_35" data-name="Rectangle 35" width="286.67" height="38" fill="rgba(21,91,84,0.97)"/>
      <text id="DEMOGRAPHICS" transform="translate(84.651 26)" fill="#f5f0f0" font-size="16" font-family="Lato-Regular, Lato"><tspan x="0" y="0">DEMOGRAPHICS</tspan></text>
    </g>
    <g id="Group_102" data-name="Group 102" transform="translate(222 446)">
      <rect id="Rectangle_35-2" data-name="Rectangle 35" width="286.67" height="38" fill="rgba(21,91,84,0.97)"/>
      <text id="NEEDS_CHALLENGES" data-name="NEEDS/CHALLENGES" transform="translate(64 26)" fill="#f5f0f0" font-size="16" font-family="Lato-Regular, Lato"><tspan x="0" y="0">NEEDS/CHALLENGES</tspan></text>
    </g>
    <g id="Group_90" data-name="Group 90" transform="translate(0 50)">
      <g id="Rectangle_35-3" data-name="Rectangle 35" transform="translate(222 278)" fill="none" stroke="#f16c38" stroke-width="1">
        <rect width="90.669" height="75.4" stroke="none"/>
        <rect x="0.5" y="0.5" width="89.669" height="74.4" fill="none"/>
      </g>
      <text id="City_dwellers" data-name="City
dwellers" transform="translate(237 298)" fill="#f16c38" font-size="12" font-family="Lato-Regular, Lato"><tspan x="0" y="12">City</tspan><tspan x="0" y="27">dwellers</tspan></text>
    </g>
    <g id="Group_103" data-name="Group 103" transform="translate(0 220)">
      <g id="Rectangle_35-4" data-name="Rectangle 35" transform="translate(222 278)" fill="none" stroke="#f16c38" stroke-width="1">
        <rect width="90.669" height="75.4" stroke="none"/>
        <rect x="0.5" y="0.5" width="89.669" height="74.4" fill="none"/>
      </g>
      <text id="No_time_to_research" data-name="No time to research" transform="translate(237 298)" fill="#f16c38" font-size="12" font-family="Lato-Regular, Lato"><tspan x="0" y="12">No time to </tspan><tspan x="0" y="27">research</tspan></text>
    </g>
    <g id="Group_97" data-name="Group 97" transform="translate(332 50)">
      <g id="Rectangle_35-5" data-name="Rectangle 35" transform="translate(222 278)" fill="none" stroke="#f16c38" stroke-width="1">
        <rect width="90.669" height="75.404" stroke="none"/>
        <rect x="0.5" y="0.5" width="89.669" height="74.404" fill="none"/>
      </g>
      <text id="Value_solitude_in_nature_after_a_stressful_week" data-name="Value solitude in nature after a stressful week" transform="translate(227 284)" fill="#f16c38" font-size="12" font-family="Lato-Regular, Lato"><tspan x="0" y="12">Value solitude </tspan><tspan x="0" y="27">in nature after </tspan><tspan x="0" y="42">a stressful </tspan><tspan x="0" y="57">week</tspan></text>
    </g>
    <g id="Group_106" data-name="Group 106" transform="translate(332 220)">
      <g id="Rectangle_35-6" data-name="Rectangle 35" transform="translate(222 278)" fill="none" stroke="#f16c38" stroke-width="1">
        <rect width="90.669" height="75.404" stroke="none"/>
        <rect x="0.5" y="0.5" width="89.669" height="74.404" fill="none"/>
      </g>
      <text id="Unplugging" transform="translate(233.5 305.5)" fill="#f16c38" font-size="12" font-family="Lato-Regular, Lato"><tspan x="0" y="12">Unplugging</tspan></text>
    </g>
    <g id="Group_100" data-name="Group 100" transform="translate(702 50)">
      <g id="Rectangle_35-7" data-name="Rectangle 35" transform="translate(222 278)" fill="none" stroke="#f16c38" stroke-width="1">
        <rect width="90.669" height="75.4" stroke="none"/>
        <rect x="0.5" y="0.5" width="89.669" height="74.4" fill="none"/>
      </g>
      <text id="Adventurous_and_want_to_explore_new_settings" data-name="Adventurous and want to explore new settings" transform="translate(232 287)" fill="#f16c38" font-size="12" font-family="Lato-Regular, Lato"><tspan x="0" y="12">Adventurous </tspan><tspan x="0" y="27">and want to </tspan><tspan x="0" y="42">explore new </tspan><tspan x="0" y="57">settings</tspan></text>
    </g>
    <g id="Group_111" data-name="Group 111" transform="translate(884 498)">
      <g id="Rectangle_35-8" data-name="Rectangle 35" fill="none" stroke="#f16c38" stroke-width="1">
        <rect width="90.669" height="75.4" stroke="none"/>
        <rect x="0.5" y="0.5" width="89.669" height="74.4" fill="none"/>
      </g>
      <text id="Expose_them_to_new_places_to_enjoy_their_hobby" data-name="Expose them to new places to enjoy their hobby" transform="translate(3 6)" fill="#f16c38" font-size="12" font-family="Lato-Regular, Lato"><tspan x="0" y="12">Expose them to </tspan><tspan x="0" y="27">new places to </tspan><tspan x="0" y="42">enjoy their </tspan><tspan x="0" y="57">hobby</tspan></text>
    </g>
    <g id="Group_92" data-name="Group 92" transform="translate(196 52)">
      <g id="Rectangle_35-9" data-name="Rectangle 35" transform="translate(222 276)" fill="none" stroke="#f16c38" stroke-width="1">
        <rect width="90.67" height="75.4" stroke="none"/>
        <rect x="0.5" y="0.5" width="89.67" height="74.4" fill="none"/>
      </g>
      <text id="Early_30s" data-name="Early 30s" transform="translate(243 318)" fill="#f16c38" font-size="12" font-family="Lato-Regular, Lato"><tspan x="0" y="0">Early 30s</tspan></text>
    </g>
    <g id="Group_105" data-name="Group 105" transform="translate(196 222)">
      <g id="Rectangle_35-10" data-name="Rectangle 35" transform="translate(222 276)" fill="none" stroke="#f16c38" stroke-width="1">
        <rect width="90.67" height="75.4" stroke="none"/>
        <rect x="0.5" y="0.5" width="89.67" height="74.4" fill="none"/>
      </g>
      <text id="Don_t_know_what_to_pack_for_weather_and_emergencies" data-name="Don’t know what to pack for weather and emergencies" transform="translate(225 282)" fill="#f16c38" font-size="12" font-family="Lato-Regular, Lato"><tspan x="0" y="12">Don’t know </tspan><tspan x="0" y="27">what to pack for </tspan><tspan x="0" y="42">weather and </tspan><tspan x="0" y="57">emergencies</tspan></text>
    </g>
    <g id="Group_99" data-name="Group 99" transform="translate(528 52)">
      <g id="Rectangle_35-11" data-name="Rectangle 35" transform="translate(222 276)" fill="none" stroke="#f16c38" stroke-width="1">
        <rect width="90.67" height="75.4" stroke="none"/>
        <rect x="0.5" y="0.5" width="89.67" height="74.4" fill="none"/>
      </g>
      <text id="Efficiency" transform="translate(242 318)" fill="#f16c38" font-size="12" font-family="Lato-Regular, Lato"><tspan x="0" y="0">Efficiency</tspan></text>
    </g>
    <g id="Group_109" data-name="Group 109" transform="translate(528 222)">
      <g id="Rectangle_35-12" data-name="Rectangle 35" transform="translate(222 276)" fill="none" stroke="#f16c38" stroke-width="1">
        <rect width="90.67" height="75.4" stroke="none"/>
        <rect x="0.5" y="0.5" width="89.67" height="74.4" fill="none"/>
      </g>
      <text id="Skill_building" data-name="Skill building" transform="translate(234 318)" fill="#f16c38" font-size="12" font-family="Lato-Regular, Lato"><tspan x="0" y="0">Skill building</tspan></text>
    </g>
    <g id="Group_91" data-name="Group 91" transform="translate(100 52)">
      <g id="Rectangle_35-13" data-name="Rectangle 35" transform="translate(225 276)" fill="none" stroke="#f16c38" stroke-width="1">
        <rect width="84.744" height="75.4" stroke="none"/>
        <rect x="0.5" y="0.5" width="83.744" height="74.4" fill="none"/>
      </g>
      <text id="Full-time_employment" data-name="Full-time employment" transform="translate(234 295)" fill="#f16c38" font-size="12" font-family="Lato-Regular, Lato"><tspan x="0" y="12">Full-time </tspan><tspan x="0" y="27">employment</tspan></text>
    </g>
    <g id="Group_104" data-name="Group 104" transform="translate(100 222)">
      <g id="Rectangle_35-14" data-name="Rectangle 35" transform="translate(225 276)" fill="none" stroke="#f16c38" stroke-width="1">
        <rect width="84.744" height="75.4" stroke="none"/>
        <rect x="0.5" y="0.5" width="83.744" height="74.4" fill="none"/>
      </g>
      <text id="Dislike_crowd_on_popular_easy_trails" data-name="Dislike crowd on popular/easy trails" transform="translate(234 283)" fill="#f16c38" font-size="12" font-family="Lato-Regular, Lato"><tspan x="0" y="12">Dislike </tspan><tspan x="0" y="27">crowd on </tspan><tspan x="0" y="42">popular/</tspan><tspan x="0" y="57">easy trails</tspan></text>
    </g>
    <g id="Group_98" data-name="Group 98" transform="translate(432 52)">
      <g id="Rectangle_35-15" data-name="Rectangle 35" transform="translate(222 276)" fill="none" stroke="#f16c38" stroke-width="1">
        <rect width="84.744" height="75.4" stroke="none"/>
        <rect x="0.5" y="0.5" width="83.744" height="74.4" fill="none"/>
      </g>
      <text id="Minimal_work" data-name="Minimal work" transform="translate(240 296)" fill="#f16c38" font-size="12" font-family="Lato-Regular, Lato"><tspan x="0" y="12">Minimal </tspan><tspan x="0" y="27">work</tspan></text>
    </g>
    <g id="Group_108" data-name="Group 108" transform="translate(432 222)">
      <g id="Rectangle_35-16" data-name="Rectangle 35" transform="translate(222 276)" fill="none" stroke="#f16c38" stroke-width="1">
        <rect width="84.744" height="75.4" stroke="none"/>
        <rect x="0.5" y="0.5" width="83.744" height="74.4" fill="none"/>
      </g>
      <text id="Adventure" transform="translate(236 305.5)" fill="#f16c38" font-size="12" font-family="Lato-Regular, Lato"><tspan x="0" y="12">Adventure</tspan></text>
    </g>
    <g id="Group_101" data-name="Group 101" transform="translate(802 52)">
      <g id="Rectangle_35-17" data-name="Rectangle 35" transform="translate(222 276)" fill="none" stroke="#f16c38" stroke-width="1">
        <rect width="90.67" height="75.4" stroke="none"/>
        <rect x="0.5" y="0.5" width="89.67" height="74.4" fill="none"/>
      </g>
      <text id="Travel_enthusiasts" data-name="Travel enthusiasts" transform="translate(235 299)" fill="#f16c38" font-size="12" font-family="Lato-Regular, Lato"><tspan x="0" y="12">Travel </tspan><tspan x="0" y="27">enthusiasts</tspan></text>
    </g>
    <g id="Group_112" data-name="Group 112" transform="translate(982 498)">
      <g id="Rectangle_35-18" data-name="Rectangle 35" fill="none" stroke="#f16c38" stroke-width="1">
        <rect width="90.67" height="75.4" stroke="none"/>
        <rect x="0.5" y="0.5" width="89.67" height="74.4" fill="none"/>
      </g>
      <text id="Help_them_in_emergency" data-name="Help them in emergency" transform="translate(10 20)" fill="#f16c38" font-size="12" font-family="Lato-Regular, Lato"><tspan x="0" y="12">Help them in </tspan><tspan x="0" y="27">emergency</tspan></text>
    </g>
    <g id="Group_113" data-name="Group 113" transform="translate(1080 498)">
      <g id="Rectangle_35-19" data-name="Rectangle 35" fill="none" stroke="#f16c38" stroke-width="1">
        <rect width="90.67" height="75.4" stroke="none"/>
        <rect x="0.5" y="0.5" width="89.67" height="74.4" fill="none"/>
      </g>
      <text id="Tell_them_what_to_bring" data-name="Tell them what to bring" transform="translate(7 22)" fill="#f16c38" font-size="12" font-family="Lato-Regular, Lato"><tspan x="0" y="12">Tell them what </tspan><tspan x="0" y="27">to bring</tspan></text>
    </g>
    <g id="Group_88" data-name="Group 88" transform="translate(553.587 276)">
      <rect id="Rectangle_36" data-name="Rectangle 36" width="286.67" height="38" transform="translate(0.413)" fill="rgba(21,91,84,0.97)"/>
      <text id="BEHAVIORS" transform="translate(99.248 26)" fill="#f5f0f0" font-size="16" font-family="Lato-Regular, Lato"><tspan x="0" y="0">BEHAVIORS</tspan></text>
    </g>
    <g id="Group_107" data-name="Group 107" transform="translate(553.587 446)">
      <rect id="Rectangle_36-2" data-name="Rectangle 36" width="286.67" height="38" transform="translate(0.413)" fill="rgba(21,91,84,0.97)"/>
      <text id="GOALS_MOTIVATION" data-name="GOALS/MOTIVATION" transform="translate(64.413 26)" fill="#f5f0f0" font-size="16" font-family="Lato-Regular, Lato"><tspan x="0" y="0">GOALS/MOTIVATION</tspan></text>
    </g>
    <g id="Group_89" data-name="Group 89" transform="translate(884.174 276)">
      <rect id="Rectangle_37" data-name="Rectangle 37" width="286.67" height="38" fill="rgba(21,91,84,0.97)"/>
      <text id="ATTITUDES" transform="translate(102.812 26)" fill="#f5f0f0" font-size="16" font-family="Lato-Regular, Lato"><tspan x="0" y="0">ATTITUDES</tspan></text>
    </g>
    <g id="Group_110" data-name="Group 110" transform="translate(884.174 446)">
      <rect id="Rectangle_37-2" data-name="Rectangle 37" width="286.67" height="38" transform="translate(-0.174)" fill="rgba(21,91,84,0.97)"/>
      <text id="HOW_CAN_WE_HELP_" data-name="HOW CAN WE HELP?" transform="translate(65.826 26)" fill="#f5f0f0" font-size="16" font-family="Lato-Regular, Lato"><tspan x="0" y="0">HOW CAN WE HELP?</tspan></text>
    </g>
  </g>
</svg>
