<svg id="driver-persona" xmlns="http://www.w3.org/2000/svg" width="78.841" height="100" viewBox="0 0 78.841 100">
  <path id="Path_15" data-name="Path 15" d="M78.841,355.478a6.6,6.6,0,0,1-6.6,6.6H6.6a6.6,6.6,0,0,1-6.6-6.6A30.129,30.129,0,0,1,30.155,325.32h18.53a30.128,30.128,0,0,1,30.155,30.158Zm0,0" transform="translate(0 -262.077)" fill="#0a66ea"/>
  <path id="Path_16" data-name="Path 16" d="M103.872,355.478a6.6,6.6,0,0,1-6.6,6.6h-59.5a6.6,6.6,0,0,1-6.6-6.6A30.129,30.129,0,0,1,61.323,325.32H73.716a30.128,30.128,0,0,1,30.155,30.158Zm0,0" transform="translate(-25.031 -262.077)" fill="#5596fb"/>
  <path id="Path_17" data-name="Path 17" d="M77.427,439.9v12.964H74.359V439.9a1.534,1.534,0,1,1,3.068,0Zm0,0" transform="translate(-59.718 -352.865)" fill="#0956c6"/>
  <path id="Path_18" data-name="Path 18" d="M313.541,439.9v12.964h-3.069V439.9a1.534,1.534,0,0,1,3.069,0Zm0,0" transform="translate(-249.341 -352.865)" fill="#0956c6"/>
  <path id="Path_19" data-name="Path 19" d="M173.354,448.277h-7.375l-3.885,12.547h15.274Zm0,0" transform="translate(-130.178 -360.824)" fill="#d63030"/>
  <path id="Path_20" data-name="Path 20" d="M179.907,405.721h-6.682a2.462,2.462,0,0,1-2.455-2.455v-5.912a2.462,2.462,0,0,1,2.455-2.455h6.682a2.462,2.462,0,0,1,2.455,2.455v5.912A2.462,2.462,0,0,1,179.907,405.721Zm0,0" transform="translate(-137.145 -317.955)" fill="#fb5858"/>
  <path id="Path_21" data-name="Path 21" d="M122.581,338.676l-.532.344-9.561,6.192a2.976,2.976,0,0,1-4.169-.945l-5.432-17.106.256-.266a30.046,30.046,0,0,1,9.641-1.575h1.927l7.338,12.454Zm0,0" transform="translate(-82.629 -261.912)" fill="#0956c6"/>
  <path id="Path_22" data-name="Path 22" d="M217.2,327.162l-5.432,17.106a2.975,2.975,0,0,1-4.169.945l-9.562-6.192-.531-.344.531-.9,7.338-12.454H207.3a30.051,30.051,0,0,1,9.642,1.575Zm0,0" transform="translate(-158.619 -261.912)" fill="#0956c6"/>
  <g id="Group_6" data-name="Group 6" transform="translate(12.148 4.216)">
    <path id="Path_23" data-name="Path 23" d="M275.22,179.257a7.784,7.784,0,1,1-7.784-7.784A7.784,7.784,0,0,1,275.22,179.257Zm0,0" transform="translate(-220.676 -141.926)" fill="#e3a76f"/>
    <path id="Path_24" data-name="Path 24" d="M162.941,253.651v11.563a.2.2,0,0,0,.026.1l7.147,12.13a.191.191,0,0,0,.329,0l7.147-12.13a.187.187,0,0,0,.026-.1V253.652a3.107,3.107,0,0,0-3.107-3.108h-8.46A3.108,3.108,0,0,0,162.941,253.651Zm0,0" transform="translate(-143.007 -205.428)" fill="#e3a76f"/>
    <path id="Path_25" data-name="Path 25" d="M77.267,179.265a7.784,7.784,0,1,1-7.784-7.784A7.784,7.784,0,0,1,77.267,179.265Zm0,0" transform="translate(-61.699 -141.933)" fill="#e3a76f"/>
    <path id="Path_26" data-name="Path 26" d="M137.9,28.095v36.2A20.244,20.244,0,0,1,120.729,84.3a20.485,20.485,0,0,1-3.069.232A20.239,20.239,0,0,1,97.422,64.292v-36.2a6.68,6.68,0,0,1,6.681-6.681h27.113A6.68,6.68,0,0,1,137.9,28.095Zm0,0" transform="translate(-90.388 -21.414)" fill="#e3a76f"/>
  </g>
  <path id="Path_27" data-name="Path 27" d="M162.932,28.095v36.2A20.244,20.244,0,0,1,145.763,84.3a20.244,20.244,0,0,1-17.169-20.007v-36.2a6.68,6.68,0,0,1,6.681-6.681h20.977A6.68,6.68,0,0,1,162.932,28.095Zm0,0" transform="translate(-103.274 -17.198)" fill="#f2bb88"/>
  <path id="Path_28" data-name="Path 28" d="M246.416,187.732a2.446,2.446,0,1,1-2.447-2.447A2.446,2.446,0,0,1,246.416,187.732Zm0,0" transform="translate(-193.968 -149.112)" fill="#3b2519"/>
  <path id="Path_29" data-name="Path 29" d="M239.81,158.534c-3.293-2.07-8.584-1.047-9.176-.924a1.534,1.534,0,0,0,.626,3c1.187-.248,5.006-.684,6.917.518a1.534,1.534,0,0,0,1.633-2.6Zm0,0" transform="translate(-184.242 -126.547)" fill="#738c96"/>
  <path id="Path_30" data-name="Path 30" d="M138.939,187.732a2.446,2.446,0,1,1-2.447-2.447A2.446,2.446,0,0,1,138.939,187.732Zm0,0" transform="translate(-107.653 -149.112)" fill="#3b2519"/>
  <path id="Path_31" data-name="Path 31" d="M124.446,157.609c-.592-.123-5.883-1.147-9.176.924a1.534,1.534,0,1,0,1.633,2.6c1.908-1.2,5.642-.78,6.918-.517a1.535,1.535,0,0,0,.625-3.005Zm0,0" transform="translate(-91.997 -126.546)" fill="#738c96"/>
  <path id="Path_32" data-name="Path 32" d="M127.614,211.107c0-2.175-2.81-3.939-6.278-3.939s-6.278,1.764-6.278,3.939,2.81,3.94,6.278,3.94S127.614,213.283,127.614,211.107Zm0,0" transform="translate(-92.404 -166.733)" fill="#e6e6e6"/>
  <path id="Path_33" data-name="Path 33" d="M234.148,211.107c0-2.175-2.81-3.939-6.278-3.939s-6.277,1.764-6.277,3.939,2.81,3.94,6.277,3.94S234.148,213.283,234.148,211.107Zm0,0" transform="translate(-177.962 -166.733)" fill="#e6e6e6"/>
  <g id="Group_7" data-name="Group 7" transform="translate(28.415 36.589)">
    <g id="Group_2" data-name="Group 2" transform="translate(21.314 0)">
      <circle id="Ellipse_6" data-name="Ellipse 6" cx="0.55" cy="0.55" r="0.55" transform="translate(-1 1)" fill="#fff"/>
      <circle id="Ellipse_4" data-name="Ellipse 4" cx="0.55" cy="0.55" r="0.55" transform="translate(-22.314 1)" fill="#fff"/>
    </g>
  </g>
  <path id="Path_34" data-name="Path 34" d="M136.057,199.375a9.337,9.337,0,0,0-6.1,2.014,5.8,5.8,0,0,0-8.784,0,9.338,9.338,0,0,0-6.1-2.014c-4.38,0-7.811,2.4-7.811,5.473s3.431,5.474,7.811,5.474c5.007,0,7.812-2.937,7.812-5.3a2.678,2.678,0,0,1,5.352,0c0,2.357,2.806,5.3,7.812,5.3,4.38,0,7.811-2.4,7.811-5.474S140.437,199.375,136.057,199.375Zm-20.976,7.878c-2.715,0-4.743-1.27-4.743-2.405s2.029-2.405,4.743-2.405,4.743,1.27,4.743,2.405S117.8,207.253,115.081,207.253Zm20.976,0c-2.714,0-4.742-1.27-4.742-2.405s2.028-2.405,4.742-2.405,4.743,1.27,4.743,2.405S138.772,207.253,136.057,207.253Zm0,0" transform="translate(-86.148 -160.473)" fill="#9c6a53"/>
  <path id="Path_35" data-name="Path 35" d="M177.155,261.32a5.658,5.658,0,0,1-5.652-5.652,1.534,1.534,0,1,1,3.068,0,2.584,2.584,0,0,0,5.168,0,1.534,1.534,0,1,1,3.068,0A5.659,5.659,0,0,1,177.155,261.32Zm0,0" transform="translate(-137.735 -204.528)" fill="#738c96"/>
  <path id="Path_36" data-name="Path 36" d="M268.4,21.945v16.3a1.143,1.143,0,0,1-1.144,1.144H260.9a6.164,6.164,0,0,1-6.163-6.164V21.945a6.161,6.161,0,0,1,5.967-6.16c.065,0,.131,0,.2,0h1.336A6.164,6.164,0,0,1,268.4,21.945Zm0,0" transform="translate(-204.578 -12.674)" fill="#9bb9c3"/>
  <path id="Path_37" data-name="Path 37" d="M114.512,1.133V3.21a8.663,8.663,0,0,1-.477,2.686c-2.876,8.784-18.5,22.155-38.512,22.024h-3.83c-2.154,0-3.9-1.2-3.9-2.69V8.432c0-3.344,2.825-6.233,6.922-7.6A16.966,16.966,0,0,1,80.038,0h32.831c.908,0,1.643.508,1.643,1.133Zm0,0" transform="translate(-54.445)" fill="#9bb9c3"/>
  <path id="Path_38" data-name="Path 38" d="M142.746,1.133V3.21A8.662,8.662,0,0,1,142.27,5.9a46.726,46.726,0,0,1-31.587,12.281H106.85c-2.154,0-3.9-1.205-3.9-2.692V.835A16.966,16.966,0,0,1,108.272,0H141.1c.908,0,1.643.508,1.643,1.133Zm0,0" transform="translate(-82.679)" fill="#b4d2d7"/>
</svg>
