<svg viewBox="0 -40 512 512" xmlns="http://www.w3.org/2000/svg"><path d="m502 228.171875v-198.171875c0-11.046875-8.953125-20-20-20h-60v40h40v178.171875zm0 0" fill="#ade5ff"/><path d="m256 228.171875h-246v153.765625c15.621094 15.621094 24.378906 24.378906 40 40h170.53125l35.46875-35.46875zm0 0" fill="#72d8ff"/><path d="m291.46875 421.9375h170.53125l40-40v-153.765625h-246v158.296875zm0 0" fill="#ff5d5d"/><path d="m10 228.171875v-198.171875c0-11.046875 8.953125-20 20-20h60v40h-40v178.171875zm0 0" fill="#ade5ff"/><path d="m62.019531 359.921875v-69.730469c3.902344-3.90625 6.09375-6.097656 10-10h121.960938c3.90625 3.902344 6.097656 6.09375 10 10v69.730469c-3.902344 3.902344-6.09375 6.09375-10 10h-121.960938c-3.90625-3.90625-6.097656-6.097656-10-10zm0 0" fill="#fff"/><path d="m308.019531 359.921875v-69.730469c3.902344-3.90625 6.09375-6.097656 10-10h121.960938c3.90625 3.902344 6.097656 6.09375 10 10v69.730469c-3.902344 3.902344-6.09375 6.09375-10 10h-121.960938c-3.90625-3.90625-6.097656-6.097656-10-10zm0 0" fill="#fff"/><path d="m482 0h-60c-5.523438 0-10 4.476562-10 10v40c0 5.523438 4.476562 10 10 10h30v158.171875h-58.070312c-5.523438 0-10 4.476563-10 10s4.476562 10 10 10h98.070312v139.625l-34.144531 34.140625h-162.246094l-29.609375-29.613281v-144.152344h44.0625c5.523438 0 10-4.476563 10-10s-4.476562-10-10-10h-250.0625v-158.171875h30c5.523438 0 10-4.476562 10-10v-40c0-5.523438-4.476562-10-10-10h-60c-16.542969 0-30 13.457031-30 30v351.9375c0 2.652344 1.054688 5.195312 2.929688 7.070312l40 40c1.875 1.875 4.417968 2.929688 7.070312 2.929688h170.53125c2.652344 0 5.195312-1.054688 7.070312-2.929688l28.398438-28.398437 28.398438 28.398437c1.875 1.875 4.417968 2.929688 7.070312 2.929688h170.53125c2.652344 0 5.195312-1.054688 7.070312-2.929688l40-40c1.875-1.875 2.929688-4.417968 2.929688-7.070312v-351.9375c0-16.542969-13.457031-30-30-30zm-452 20h50v20h-30c-5.523438 0-10 4.476562-10 10v168.171875h-20v-188.171875c0-5.511719 4.484375-10 10-10zm186.390625 391.9375h-162.246094l-34.144531-34.140625v-139.625h226v144.152344zm255.609375-193.765625v-168.171875c0-5.523438-4.476562-10-10-10h-30v-20h50c5.515625 0 10 4.484375 10 10v188.171875zm0 0"/><path d="m133 359.921875c-2.632812 0-5.210938 1.066406-7.070312 2.929687-1.859376 1.859376-2.929688 4.4375-2.929688 7.070313 0 2.628906 1.070312 5.207031 2.929688 7.066406 1.859374 1.859375 4.4375 2.933594 7.070312 2.933594 2.628906 0 5.210938-1.070313 7.070312-2.933594 1.859376-1.859375 2.929688-4.429687 2.929688-7.066406 0-2.632813-1.070312-5.210937-2.929688-7.070313-1.859374-1.863281-4.441406-2.929687-7.070312-2.929687zm0 0"/><path d="m201.054688 273.117188c-1.878907-1.875-4.421876-2.929688-7.074219-2.929688h-121.960938c-2.652343 0-5.195312 1.054688-7.074219 2.929688l-10 10c-1.875 1.875-2.925781 4.417968-2.925781 7.070312v69.730469c0 2.652343 1.050781 5.195312 2.925781 7.070312l10 10c1.878907 1.875 4.421876 2.929688 7.074219 2.929688h12.242188c5.523437 0 10-4.476563 10-10 0-5.519531-4.476563-10-10-10h-8.101563l-4.144531-4.140625v-61.445313l4.144531-4.144531h113.679688l4.140625 4.144531v61.445313l-4.140625 4.140625h-12.242188c-5.523437 0-10 4.480469-10 10 0 5.523437 4.476563 10 10 10h16.382813c2.652343 0 5.195312-1.054688 7.074219-2.929688l10-10c1.875-1.875 2.925781-4.417969 2.925781-7.070312v-69.730469c0-2.652344-1.050781-5.195312-2.925781-7.070312zm0 0"/><path d="m342.929688 228.171875c0 2.628906 1.070312 5.207031 2.929687 7.066406s4.441406 2.933594 7.070313 2.933594c2.628906 0 5.210937-1.070313 7.070312-2.933594 1.859375-1.859375 2.929688-4.429687 2.929688-7.066406 0-2.632813-1.070313-5.210937-2.929688-7.070313-1.859375-1.863281-4.441406-2.929687-7.070312-2.929687-2.628907 0-5.210938 1.066406-7.070313 2.929687-1.859375 1.859376-2.929687 4.4375-2.929687 7.070313zm0 0"/><path d="m310.945312 273.117188-10 10c-1.875 1.875-2.929687 4.417968-2.929687 7.070312v69.730469c0 2.652343 1.054687 5.195312 2.929687 7.070312l10 10c1.875 1.875 4.417969 2.929688 7.070313 2.929688h121.964844c2.652343 0 5.195312-1.054688 7.070312-2.929688l10-10c1.875-1.875 2.929688-4.417969 2.929688-7.070312v-69.730469c0-2.652344-1.054688-5.195312-2.929688-7.070312l-10-10c-1.875-1.875-4.417969-2.929688-7.070312-2.929688h-121.960938c-2.65625.003906-5.199219 1.054688-7.074219 2.929688zm124.894532 17.074218 4.140625 4.140625v61.445313l-4.140625 4.144531h-113.679688l-4.144531-4.144531v-61.445313l4.144531-4.140625zm0 0"/><path d="m209.9375 159.5h-40c-5.523438 0-10 4.476562-10 10s4.476562 10 10 10h40c18.75 0 34-15.253906 34-34 0-9.359375-3.800781-17.847656-9.941406-24 6.140625-6.152344 9.941406-14.640625 9.941406-24 0-18.746094-15.25-34-34-34h-40c-5.523438 0-10 4.476562-10 10s4.476562 10 10 10h40c7.71875 0 14 6.28125 14 14s-6.28125 14-14 14h-40c-5.523438 0-10 4.476562-10 10s4.476562 10 10 10h40c7.71875 0 14 6.28125 14 14s-6.28125 14-14 14zm0 0"/><path d="m278.0625 179.5h16c31.980469 0 58-26.019531 58-58s-26.019531-58-58-58h-16c-5.523438 0-10 4.476562-10 10v96c0 5.523438 4.476562 10 10 10zm10-96h6c20.953125 0 38 17.046875 38 38s-17.046875 38-38 38h-6zm0 0"/></svg>